<svg width="22" height="22" viewBox="0 0 22 22" fill="none" xmlns="http://www.w3.org/2000/svg">
<g clip-path="url(#clip0_805_4003)">
<path d="M4.14333 5.43944L1.27691 2.57394L2.574 1.27686L20.7231 19.4269L19.426 20.723L16.3918 17.6889C14.7796 18.7114 12.9092 19.253 11 19.2499C6.05733 19.2499 1.94516 15.6933 1.08258 10.9999C1.47677 8.86476 2.55074 6.91426 4.14425 5.43944H4.14333ZM13.5272 14.8243L12.1852 13.4823C11.672 13.7279 11.0951 13.8082 10.5343 13.7122C9.97341 13.6161 9.45615 13.3485 9.0538 12.9461C8.65144 12.5438 8.3838 12.0265 8.28778 11.4657C8.19176 10.9048 8.27208 10.328 8.51766 9.81469L7.17566 8.47269C6.5924 9.35405 6.33166 10.4099 6.43759 11.4615C6.54352 12.513 7.00961 13.4957 7.75694 14.243C8.50427 14.9903 9.48691 15.4564 10.5385 15.5623C11.59 15.6683 12.6459 15.4075 13.5272 14.8243ZM7.3095 3.44661C8.45258 2.99744 9.69833 2.74994 11 2.74994C15.9427 2.74994 20.0548 6.30661 20.9174 10.9999C20.6365 12.5268 20.0052 13.9677 19.0731 15.2093L15.5347 11.6709C15.6399 10.9629 15.5777 10.2401 15.3532 9.56046C15.1287 8.88079 14.7481 8.26315 14.242 7.75702C13.7359 7.25088 13.1182 6.87033 12.4386 6.64584C11.7589 6.42135 11.0361 6.35917 10.3281 6.46427L7.3095 3.44752V3.44661Z" fill="#888888"/>
</g>
<defs>
<clipPath id="clip0_805_4003">
<rect width="22" height="22" fill="white"/>
</clipPath>
</defs>
</svg>
